<?xml version="1.0" standalone="no"?>
<!DOCTYPE svg PUBLIC "-//W3C//DTD SVG 20010904//EN"
 "http://www.w3.org/TR/2001/REC-SVG-20010904/DTD/svg10.dtd">
<svg version="1.0" xmlns="http://www.w3.org/2000/svg"
 width="1944.000000pt" height="1389.000000pt" viewBox="0 0 1944.000000 1389.000000"
 preserveAspectRatio="xMidYMid meet">

<g transform="translate(0.000000,1389.000000) scale(0.100000,-0.100000)"
fill="#000000" stroke="none">
<path d="M0 6945 l0 -6945 9720 0 9720 0 0 6945 0 6945 -9720 0 -9720 0 0
-6945z m3076 -3594 c183 -55 364 -181 484 -336 l42 -55 6118 0 6118 0 42 55
c121 157 302 282 489 337 68 20 98 23 271 23 l195 0 103 -36 c131 -47 245
-115 343 -207 81 -76 125 -146 114 -182 -16 -51 -11 -50 -393 -50 l-357 0
-124 -244 -125 -243 128 -231 128 -232 358 0 c391 0 390 0 390 -57 0 -41 -37
-90 -132 -172 -195 -170 -381 -241 -634 -241 -181 0 -326 35 -464 112 -103 57
-228 168 -301 265 l-40 53 -6109 0 -6109 0 -40 -52 c-73 -98 -198 -209 -301
-266 -139 -77 -283 -112 -465 -112 -275 0 -469 77 -663 264 -73 70 -92 101
-92 149 0 62 -3 62 389 65 l356 3 123 243 123 242 -128 232 -128 232 -357 0
c-391 0 -388 -1 -388 60 0 82 223 272 406 347 136 55 186 63 384 59 143 -3
188 -7 246 -25z"/>
<path d="M5398 2438 c-112 -161 -208 -299 -212 -305 -5 -10 5 -13 42 -13 l48
0 58 80 57 80 123 0 124 0 7 -80 7 -80 114 0 c63 0 114 2 114 4 0 14 -61 547
-65 574 l-6 32 -103 0 -103 0 -205 -292z m216 52 c4 -36 10 -75 13 -87 5 -23
3 -23 -81 -23 l-86 0 68 99 c37 54 70 93 73 87 4 -6 10 -40 13 -76z"/>
<path d="M6263 2492 c-35 -131 -63 -255 -63 -276 0 -28 7 -45 29 -67 l29 -29
196 0 c114 0 206 4 223 11 37 14 71 46 93 89 14 28 140 481 140 504 0 3 -20 6
-44 6 l-43 0 -63 -237 c-34 -131 -69 -246 -78 -255 -13 -15 -33 -18 -133 -18
-104 0 -119 2 -128 18 -7 14 6 77 50 243 32 123 59 230 59 237 0 9 -27 12
-102 12 l-103 0 -62 -238z"/>
<path d="M7166 2718 c-3 -7 -9 -28 -15 -47 -6 -19 -11 -36 -11 -37 0 -2 36 -4
81 -4 72 0 80 -2 75 -17 -17 -57 -126 -472 -126 -482 0 -8 28 -11 103 -9 l102
3 66 250 66 250 80 3 81 3 11 44 c6 24 11 46 11 49 0 3 -117 6 -260 6 -200 0
-262 -3 -264 -12z"/>
<path d="M8046 2720 c-74 -23 -100 -73 -161 -305 -52 -198 -53 -235 -10 -272
25 -22 33 -23 225 -23 206 0 237 5 278 43 39 36 58 84 107 272 50 192 52 232
15 269 -19 20 -33 21 -223 23 -111 1 -215 -2 -231 -7z m269 -100 c9 -14 -86
-369 -103 -386 -19 -19 -151 -19 -158 0 -8 21 82 356 102 377 14 15 31 19 85
19 37 0 71 -5 74 -10z"/>
<path d="M9485 2718 c-7 -23 -155 -585 -155 -592 0 -3 47 -6 104 -6 l103 0 34
130 34 131 35 -3 35 -3 14 -127 14 -128 117 0 117 0 -24 123 c-13 67 -21 128
-18 135 2 6 14 12 25 12 42 0 66 41 94 157 31 131 26 156 -33 173 -55 15 -491
13 -496 -2z m330 -124 c-3 -20 -12 -53 -18 -73 l-12 -36 -76 -3 -76 -3 20 76
20 75 75 0 74 0 -7 -36z"/>
<path d="M10307 2433 c-43 -164 -78 -301 -77 -306 0 -4 104 -6 232 -5 l232 3
12 48 12 47 -128 0 -127 0 20 85 21 85 122 0 c68 0 125 3 128 8 2 4 7 24 11
45 l7 37 -121 0 c-66 0 -121 2 -121 4 0 1 4 16 10 32 5 16 14 48 20 71 l11 42
126 3 127 3 12 48 12 47 -232 0 -231 0 -78 -297z"/>
<path d="M11057 2433 c-43 -164 -78 -302 -77 -306 0 -4 46 -6 102 -5 l102 3
16 65 c10 36 23 84 29 108 l12 42 142 0 c159 0 189 10 227 72 27 45 71 234 61
262 -19 49 -28 51 -290 54 l-246 3 -78 -298z m399 184 c2 -7 -6 -48 -18 -92
l-23 -80 -72 -3 c-40 -2 -73 0 -73 3 0 11 41 169 46 177 9 14 134 9 140 -5z"/>
<path d="M12001 2430 c-116 -164 -211 -302 -211 -305 0 -3 21 -5 48 -5 l47 1
55 79 55 80 123 0 c89 0 124 -3 127 -12 2 -7 7 -43 10 -80 l7 -68 112 0 112 0
-32 288 c-18 158 -33 295 -33 305 -1 15 -13 17 -105 17 l-105 0 -210 -300z
m222 48 l13 -98 -84 0 -84 0 19 29 c80 123 118 179 120 173 2 -4 9 -51 16
-104z"/>
<path d="M12945 2718 c-7 -20 -155 -585 -155 -592 0 -3 47 -6 104 -6 l103 0
38 143 c21 78 57 215 80 305 l43 162 -104 0 c-75 0 -106 -4 -109 -12z"/>
<path d="M13425 2718 c-8 -22 -155 -584 -155 -591 0 -4 47 -7 104 -7 l103 0
34 130 34 131 35 -3 35 -3 13 -125 c8 -69 15 -126 17 -128 1 -1 54 -1 117 0
l115 3 -23 115 c-13 63 -23 120 -23 127 -1 6 15 17 34 23 47 16 59 36 90 157
46 180 42 183 -290 183 -180 0 -237 -3 -240 -12z m330 -98 c9 -14 -22 -122
-37 -131 -19 -13 -138 -11 -138 1 0 6 7 40 16 75 l16 65 69 0 c37 0 71 -4 74
-10z"/>
</g>
</svg>
