<?xml version="1.0" standalone="no"?>
<!DOCTYPE svg PUBLIC "-//W3C//DTD SVG 20010904//EN"
 "http://www.w3.org/TR/2001/REC-SVG-20010904/DTD/svg10.dtd">
<svg version="1.0" xmlns="http://www.w3.org/2000/svg"
 width="1146.000000pt" height="833.000000pt" viewBox="0 0 1146.000000 833.000000"
 preserveAspectRatio="xMidYMid meet">

<g transform="translate(0.000000,833.000000) scale(0.100000,-0.100000)"
fill="#000000" stroke="none">
<path d="M4938 5611 c-2 -92 -2 -176 0 -185 3 -14 22 -16 143 -16 l140 0 -3
-72 -3 -73 -192 -3 -192 -2 -3 -73 -3 -72 -195 -5 -195 -5 0 -193 0 -192 67 0
67 0 3 128 3 127 198 3 197 2 0 71 c0 67 1 70 23 69 12 -1 102 -2 200 -1 l177
1 0 215 0 215 -146 0 -145 0 3 43 3 42 363 3 362 2 0 -45 0 -45 -150 0 -150 0
0 -215 0 -215 548 0 547 0 93 -93 92 -92 0 -108 0 -107 190 0 190 0 0 140 0
140 78 0 c73 0 80 -2 105 -28 26 -27 27 -32 27 -140 l0 -112 70 0 70 0 0 133
0 132 -78 78 -77 77 -168 0 -167 0 0 -145 0 -145 -50 0 -50 0 0 68 0 67 -138
138 -137 137 -505 2 -505 3 -3 73 -3 72 161 0 160 0 0 185 0 185 -510 0 -509
0 -3 -169z"/>
<path d="M4120 5172 c-28 -3 -49 -18 -107 -75 l-73 -71 0 -153 0 -153 130 0
130 0 0 224 0 224 -22 3 c-13 2 -39 3 -58 1z"/>
<path d="M3665 4598 c-10 -30 -25 -94 -25 -105 0 -10 27 -13 101 -13 91 0 100
-2 95 -17 -17 -58 -166 -615 -166 -623 0 -6 54 -10 133 -10 l134 0 72 273 c40
149 79 296 87 325 l15 52 103 0 102 0 16 65 15 65 -339 0 c-262 0 -340 -3
-343 -12z"/>
<path d="M4480 4605 c0 -3 -45 -174 -100 -380 -55 -206 -100 -377 -100 -380 0
-3 61 -5 135 -5 l135 0 6 25 c3 14 23 87 43 162 l37 138 42 3 c36 3 42 0 46
-20 6 -24 36 -276 36 -296 0 -9 39 -12 150 -12 113 0 150 3 150 13 0 6 -14 80
-30 162 -17 83 -30 151 -30 151 0 1 18 4 39 8 60 9 83 45 119 183 46 172 42
211 -23 239 -27 11 -100 14 -345 14 -170 0 -310 -2 -310 -5z m427 -162 c-4
-21 -14 -62 -22 -90 l-16 -53 -98 0 -99 0 24 83 c13 45 24 85 24 90 0 4 43 7
96 7 l97 0 -6 -37z"/>
<path d="M5306 4473 c24 -76 59 -183 78 -239 l34 -101 -39 -144 c-21 -79 -39
-147 -39 -151 0 -5 60 -8 133 -8 l134 0 39 145 38 146 174 207 c96 114 187
224 204 245 l30 37 -69 0 -69 0 -128 -155 c-71 -86 -132 -153 -135 -149 -3 3
-29 72 -57 152 l-52 147 -160 3 -160 2 44 -137z"/>
<path d="M6261 4584 c-90 -45 -107 -82 -195 -427 -50 -194 -50 -196 -36 -248
19 -69 27 -70 337 -69 265 0 278 1 315 22 72 41 101 104 173 380 57 218 63
265 42 308 -27 54 -59 60 -333 60 l-250 0 -53 -26z m373 -120 c8 -22 -111
-464 -131 -486 -21 -24 -184 -26 -202 -4 -15 18 97 456 124 486 16 17 31 20
110 20 76 0 94 -3 99 -16z"/>
<path d="M6956 4238 c-55 -205 -101 -379 -104 -385 -3 -10 12 -13 54 -13 l59
0 84 315 c47 173 86 313 89 311 2 -3 26 -118 52 -258 27 -139 54 -279 61 -310
l12 -58 178 0 178 0 10 38 c5 20 51 189 100 375 50 186 91 342 91 347 0 6 -26
10 -58 10 l-58 0 -78 -297 c-44 -164 -82 -305 -87 -313 -5 -10 -10 -2 -14 25
-4 22 -32 162 -61 310 -30 149 -54 271 -54 273 0 1 -80 2 -178 2 l-177 0 -99
-372z"/>
<path d="M4147 4021 c-53 -204 -57 -225 -57 -335 l0 -116 55 0 55 0 0 275 0
275 54 0 54 0 11 44 c19 76 19 76 -52 76 l-64 0 -56 -219z"/>
<path d="M6788 3583 l-3 -148 -776 -3 -775 -2 -150 142 -149 143 -247 -3 -248
-2 0 -70 0 -70 228 0 227 0 140 -140 140 -140 877 0 878 0 0 155 0 155 50 0
50 0 0 -120 0 -120 168 0 167 0 78 78 77 77 0 108 0 107 -70 0 -70 0 0 -87 c0
-81 -2 -89 -27 -115 -25 -26 -32 -28 -105 -28 l-78 0 0 115 0 115 -190 0 -189
0 -3 -147z"/>
<path d="M4508 2903 c-23 -29 -108 -151 -108 -157 0 -15 24 -4 42 19 14 18 29
25 54 25 30 0 34 -3 34 -25 0 -22 4 -25 36 -25 l36 0 -7 63 c-11 111 -13 117
-44 117 -15 0 -35 -8 -43 -17z m14 -58 c4 -21 1 -25 -19 -25 -23 0 -23 1 -7
25 9 14 18 25 19 25 1 0 5 -11 7 -25z"/>
<path d="M4714 2846 c-23 -99 -20 -106 59 -106 77 0 89 10 111 96 18 72 19 84
7 84 -5 0 -17 -26 -26 -57 -9 -32 -18 -66 -21 -75 -4 -13 -16 -18 -45 -18 -44
0 -45 3 -24 74 21 69 20 76 -14 76 -28 0 -30 -3 -47 -74z"/>
<path d="M4980 2905 c0 -8 9 -15 20 -15 24 0 24 5 0 -81 l-19 -70 32 3 c31 3
33 6 51 76 16 62 22 72 41 72 13 0 25 7 29 15 4 13 -8 15 -74 15 -64 0 -80 -3
-80 -15z"/>
<path d="M5229 2910 c-19 -11 -55 -131 -46 -154 5 -12 22 -16 76 -16 81 0 89
7 111 96 19 75 13 84 -62 84 -35 0 -70 -5 -79 -10z m91 -27 c0 -5 -6 -30 -13
-58 -11 -43 -17 -50 -41 -53 -23 -3 -27 0 -23 15 3 10 11 37 17 61 9 35 15 42
35 42 14 0 25 -3 25 -7z"/>
<path d="M5666 2912 c-2 -4 -12 -36 -21 -72 -9 -36 -18 -73 -21 -82 -4 -14 1
-18 25 -18 27 0 31 5 41 40 6 22 15 40 20 40 5 0 13 -18 16 -40 6 -38 9 -40
40 -40 32 0 34 2 28 28 -3 15 -7 33 -10 40 -2 6 3 12 11 12 15 0 40 74 30 90
-7 12 -152 14 -159 2z m94 -42 c0 -15 -7 -20 -25 -20 -27 0 -28 1 -19 24 9 24
44 20 44 -4z"/>
<path d="M5920 2878 c-6 -24 -15 -59 -21 -78 -16 -61 -15 -61 58 -58 42 2 68
8 71 16 2 8 -9 12 -37 12 -38 0 -40 2 -32 23 6 16 18 23 44 25 49 4 59 32 12
32 -28 0 -35 4 -35 20 0 17 7 20 39 20 25 0 41 5 45 15 4 12 -6 15 -64 15
l-69 0 -11 -42z"/>
<path d="M6137 2853 c-9 -37 -19 -78 -23 -90 -6 -20 -3 -23 25 -23 27 0 32 4
37 29 6 26 10 29 56 33 61 6 71 16 72 70 l1 43 -75 3 -76 3 -17 -68z m113 26
c0 -6 -5 -19 -10 -30 -13 -23 -52 -27 -45 -4 3 8 7 22 10 30 5 17 45 21 45 4z"/>
<path d="M6410 2835 c-33 -47 -60 -87 -60 -90 0 -14 24 -2 42 20 27 34 85 36
90 3 2 -18 11 -24 37 -26 l33 -3 -6 58 c-14 120 -15 123 -47 123 -24 0 -37
-12 -89 -85z m69 -7 c1 -5 -10 -8 -24 -8 -25 0 -25 0 -8 26 15 24 17 25 24 8
4 -11 8 -22 8 -26z"/>
<path d="M6676 2868 c-8 -29 -19 -70 -25 -91 l-10 -38 32 3 c30 3 33 7 48 63
33 124 33 115 -1 115 -27 0 -31 -4 -44 -52z"/>
<path d="M6816 2868 c-8 -29 -19 -70 -25 -90 l-9 -38 33 0 c31 0 34 3 40 41 8
49 29 47 33 -4 3 -35 5 -37 39 -37 35 0 35 0 28 36 -5 28 -2 39 11 48 10 8 17
28 18 52 l1 39 -77 3 -77 3 -15 -53z m107 2 c-3 -11 -14 -20 -24 -20 -12 0
-19 7 -19 20 0 14 7 20 24 20 19 0 23 -4 19 -20z"/>
</g>
</svg>
